# xmcd CD database file
#
# Track frame offsets:
#	150
#	23487
#	44202
#	68187
#	97025
#	125345
#	157635
#	188032
#	207767
#
# Disc length: 3136 seconds
#
# Revision: 0
# Processed by: cddbd v1.5.1PL0 Copyright (c) Steve Scherf et al.
# Submitted via: CDex 1.51
#
DISCID=710c3e09
DTITLE=Lovers - TENDERNESS and EYES
DYEAR=1991
DGENRE=Japanese Rock
TTITLE0=Mistake
TTITLE1=Desire
TTITLE2=Irony Kiss
TTITLE3=Whisper
TTITLE4=Too Late
TTITLE5=Last Night
TTITLE6=Fallen Heaven
TTITLE7=Juliet
TTITLE8=Tenderness
EXTD=YEAR: 1991
EXTT0=
EXTT1=
EXTT2=
EXTT3=
EXTT4=
EXTT5=
EXTT6=
EXTT7=
EXTT8=
PLAYORDER=
